<svg width="360" height="720" viewBox="0 0 360 720" fill="none" xmlns="http://www.w3.org/2000/svg">
<rect width="360" height="720" fill="white"/>
<path d="M209.488 301H150.308C135.226 301 123 313.088 123 328C123 342.912 135.226 355 150.308 355H209.488C224.57 355 236.796 342.912 236.796 328C236.796 313.088 224.57 301 209.488 301Z" fill="#006DF9"/>
<path d="M212.334 336.541C217.105 336.541 220.972 332.718 220.972 328.001C220.972 323.285 217.105 319.461 212.334 319.461C207.564 319.461 203.697 323.285 203.697 328.001C203.697 332.718 207.564 336.541 212.334 336.541Z" fill="white"/>
<path d="M156.93 334.66L147.896 320.789C147.693 320.477 147.232 320.477 147.028 320.789L137.994 334.66C137.772 334.998 138.019 335.446 138.428 335.446H156.496C156.905 335.446 157.152 334.998 156.93 334.66Z" fill="white"/>
<path d="M187.042 320.115H172.754C172.296 320.115 171.924 320.483 171.924 320.936V335.063C171.924 335.517 172.296 335.884 172.754 335.884H187.042C187.501 335.884 187.873 335.517 187.873 335.063V320.936C187.873 320.483 187.501 320.115 187.042 320.115Z" fill="white"/>
</svg>
