<svg width="152" height="152" viewBox="0 0 152 152" fill="none" xmlns="http://www.w3.org/2000/svg">
<ellipse opacity="0.3" cx="79.0442" cy="72.9583" rx="54.72" ry="54.72" fill="#F4BD31"/>
<path d="M79.0445 42.5594C95.834 42.5594 109.445 56.1699 109.445 72.9594C109.445 89.7488 95.834 103.359 79.0445 103.359C62.2551 103.359 48.6445 89.7488 48.6445 72.9594C48.6445 56.1699 62.2551 42.5594 79.0445 42.5594Z" fill="#F4BD31"/>
<path fill-rule="evenodd" clip-rule="evenodd" d="M113.49 72.9615C113.49 53.9334 98.0646 38.5082 79.0366 38.5082C60.0085 38.5082 44.5832 53.9334 44.5832 72.9615C44.5832 91.9895 60.0085 107.415 79.0366 107.415C98.0646 107.415 113.49 91.9895 113.49 72.9615ZM121.597 72.9615C121.597 49.4562 102.542 30.4015 79.0366 30.4015C55.5313 30.4015 36.4766 49.4563 36.4766 72.9615C36.4766 96.4667 55.5313 115.521 79.0366 115.521C102.542 115.521 121.597 96.4667 121.597 72.9615Z" fill="#F4BD31"/>
<path d="M79 56V80" stroke="white" stroke-width="4" stroke-linecap="round" stroke-linejoin="round"/>
<path d="M79 88H79.01" stroke="white" stroke-width="6" stroke-linecap="round" stroke-linejoin="round"/>
</svg>
