<svg width="16" height="16" viewBox="0 0 16 16" fill="none" xmlns="http://www.w3.org/2000/svg">
<rect width="16" height="16" rx="2" fill="#006DF9"/>
<path d="M10.7427 5.33325H5.22764C3.76651 5.33325 2.58203 6.51768 2.58203 7.97875C2.58203 9.43983 3.76651 10.6243 5.22764 10.6243H10.7427C12.2039 10.6243 13.3883 9.43983 13.3883 7.97875C13.3883 6.51768 12.2039 5.33325 10.7427 5.33325Z" fill="white"/>
<path d="M5.97103 8.63136L5.09587 7.27214C5.07616 7.24164 5.03155 7.24164 5.01184 7.27214L4.13668 8.63136C4.11531 8.66456 4.13917 8.70833 4.1788 8.70833H5.92932C5.96895 8.70833 5.99281 8.66456 5.97144 8.63136H5.97103Z" fill="#006DF9"/>
<path d="M8.68752 7.2063H7.3034C7.25894 7.2063 7.2229 7.24234 7.2229 7.2868V8.67092C7.2229 8.71538 7.25894 8.75142 7.3034 8.75142H8.68752C8.73198 8.75142 8.76802 8.71538 8.76802 8.67092V7.2868C8.76802 7.24234 8.73198 7.2063 8.68752 7.2063Z" fill="#006DF9"/>
<path d="M10.9564 8.81564C11.4185 8.81564 11.7932 8.441 11.7932 7.97887C11.7932 7.51673 11.4185 7.14209 10.9564 7.14209C10.4943 7.14209 10.1196 7.51673 10.1196 7.97887C10.1196 8.441 10.4943 8.81564 10.9564 8.81564Z" fill="#006DF9"/>
</svg>
